<?xml version="1.0" encoding="utf-8"?>
<!-- Generator: Adobe Illustrator 16.0.0, SVG Export Plug-In . SVG Version: 6.00 Build 0)  -->
<!DOCTYPE svg PUBLIC "-//W3C//DTD SVG 1.1//EN" "http://www.w3.org/Graphics/SVG/1.1/DTD/svg11.dtd">
<svg version="1.1" id="Layer_1" xmlns="http://www.w3.org/2000/svg" xmlns:xlink="http://www.w3.org/1999/xlink" x="0px" y="0px"
	 width="612px" height="792px" viewBox="0 0 612 792" enable-background="new 0 0 612 792" xml:space="preserve">
<g>
	<polygon points="159.895,328.485 160.138,328.485 213.513,407.635 222.51,407.635 222.51,317.664 213.513,317.664 213.513,392.316 
		213.27,392.316 163.056,317.664 150.898,317.664 150.898,407.635 159.895,407.635 	"/>
	<path d="M317.619,325.81h10.159c7.539,0,12.159,0.607,17.507,3.404c5.836,2.918,9.851,10.213,9.851,17.265
		c0,8.024-4.985,16.292-14.833,19.088c-4.015,1.216-7.904,1.338-19.333,1.338l30.517,40.729h11.309l-25.41-33.557
		c17.386-1.094,26.746-14.346,26.746-27.356c0-11.063-5.957-20.912-16.048-25.654c-4.134-1.945-10.092-3.404-22.128-3.404h-17.333
		v89.971h8.997V325.81z"/>
	<path d="M539.384,445.756c0-11.063-5.957-20.912-16.048-25.654c-4.134-1.945-10.092-3.404-22.128-3.404h-17.333v89.972h8.998
		v-81.825h10.158c7.539,0,12.159,0.607,17.507,3.404c5.836,2.918,9.851,10.213,9.851,17.265c0,8.024-4.985,16.292-14.833,19.089
		c-4.015,1.216-7.903,1.338-19.333,1.338l30.517,40.729h11.309l-25.41-33.557C530.023,472.018,539.384,458.766,539.384,445.756z"/>
	<path d="M233.504,445.435c0-11.063-5.957-20.912-16.048-25.654c-4.133-1.944-10.092-3.403-22.128-3.403h-22.857v89.971h8.998
		v-81.825h15.684c7.539,0,12.159,0.607,17.507,3.403c5.836,2.919,9.85,10.214,9.85,17.266c0,8.024-4.985,16.292-14.833,19.088
		c-4.014,1.217-7.903,1.338-19.333,1.338l30.517,40.73h11.309l-25.41-33.557C224.144,471.696,233.504,458.443,233.504,445.435z"/>
	<polygon points="418.406,399.489 378.163,399.489 378.163,366.297 417.068,366.297 417.068,358.151 378.163,358.151 
		378.163,325.81 418.406,325.81 418.406,317.664 369.166,317.664 369.166,407.635 418.406,407.635 	"/>
	<polygon points="118.606,424.522 139.275,424.522 139.275,506.348 148.272,506.348 148.272,424.522 168.821,424.522 
		168.821,416.377 118.606,416.377 	"/>
	<path d="M348.204,455.848c-11.792-3.404-21.398-5.957-21.398-16.899c0-7.781,5.959-15.685,16.292-15.685
		c8.512,0,15.928,7.174,15.928,16.292h8.997c0-13.131-10.213-24.438-24.925-24.438c-14.225,0-25.289,10.213-25.289,24.195
		c0,17.873,15.197,21.277,23.345,23.709c6.079,1.824,20.061,5.35,20.061,19.21c0,10.577-8.633,17.872-18.116,17.872
		c-11.062,0-18.236-7.295-18.723-18.602h-8.997c0.364,19.818,16.048,26.748,27.72,26.748c15.928,0,27.113-12.523,27.113-26.383
		C370.211,479.191,370.332,461.806,348.204,455.848z"/>
	<path d="M100.897,455.848c-11.792-3.404-21.398-5.957-21.398-16.899c0-7.781,5.958-15.685,16.292-15.685
		c8.512,0,15.927,7.174,15.927,16.292h8.998c0-13.131-10.213-24.438-24.925-24.438c-14.225,0-25.29,10.213-25.29,24.195
		c0,17.873,15.198,21.277,23.345,23.709c6.08,1.824,20.061,5.35,20.061,19.21c0,10.577-8.633,17.872-18.116,17.872
		c-11.063,0-18.237-7.295-18.722-18.602h-8.998c0.365,19.818,16.048,26.748,27.72,26.748c15.927,0,27.113-12.523,27.113-26.383
		C122.904,479.191,123.025,461.806,100.897,455.848z"/>
	<path d="M405.562,455.848c-11.795-3.404-21.398-5.957-21.398-16.899c0-7.781,5.956-15.685,16.292-15.685
		c8.51,0,15.927,7.174,15.927,16.292h8.998c0-13.131-10.215-24.438-24.925-24.438c-14.227,0-25.29,10.213-25.29,24.195
		c0,17.873,15.198,21.277,23.343,23.709c6.08,1.824,20.062,5.35,20.062,19.21c0,10.577-8.633,17.872-18.115,17.872
		c-11.065,0-18.239-7.295-18.725-18.602h-8.997c0.364,19.818,16.048,26.748,27.722,26.748c15.927,0,27.113-12.523,27.113-26.383
		C427.569,479.191,427.689,461.806,405.562,455.848z"/>
	<polygon points="429.832,506.67 479.073,506.67 479.073,498.523 438.83,498.523 438.83,465.332 477.735,465.332 477.735,457.186 
		438.83,457.186 438.83,424.845 479.073,424.845 479.073,416.698 429.832,416.698 	"/>
	<path d="M103.396,377.099h32.953v30.486h8.459v-89.874h-11.102L71.5,407.585h11.102L103.396,377.099z M136.349,329.694v38.946
		h-28.195L136.349,329.694z"/>
	<polygon points="487.31,330.241 487.223,407.535 497.546,407.535 559.751,317.713 548.809,317.713 495.603,394.212 
		495.603,317.713 484.927,317.713 431.104,394.212 431.104,317.713 422.722,317.713 422.722,407.535 432.781,407.535 	"/>
	<path d="M283.452,400.091c17.207-10.983,20.502-29.045,20.502-37.466c0-10.862-4.637-28.069-20.502-37.954
		c-7.323-4.76-18.306-7.445-29.412-7.445h-26.36v90.309h26.36C265.146,407.535,276.129,404.85,283.452,400.091z M236.711,399.357
		v-73.954h13.058c13.302,0,21.723,1.708,29.777,6.956c9.397,6.834,15.376,17.939,15.376,29.899c0,15.744-8.665,25.14-14.157,29.778
		c-10.373,7.321-22.821,7.321-30.997,7.321H236.711z"/>
	<path d="M272.945,416.373l-38.4,89.924h9.357l13.124-30.259h41.802l13.002,30.259h9.843l-38.643-89.924H272.945z M260.428,467.896
		l17.621-41.315l17.254,41.315H260.428z"/>
</g>
</svg>
