<svg xmlns="http://www.w3.org/2000/svg" viewBox="0 0 491.68 191.02"><title>Asset 1</title><g id="Layer_2" data-name="Layer 2"><g id="Layer_1-2" data-name="Layer 1"><polygon points="91.82 11.26 92.07 11.26 145.44 90.41 154.44 90.41 154.44 0.44 145.44 0.44 145.44 75.09 145.2 75.09 94.98 0.44 82.83 0.44 82.83 90.41 91.82 90.41 91.82 11.26"/><path d="M249.55,8.58h10.16c7.54,0,12.16.61,17.51,3.4,5.84,2.92,9.85,10.21,9.85,17.27a19.74,19.74,0,0,1-14.83,19.09c-4,1.22-7.9,1.34-19.33,1.34l30.52,40.73h11.31L269.31,56.85c17.39-1.09,26.75-14.35,26.75-27.36A27.87,27.87,0,0,0,280,3.84C275.88,1.9,269.92.44,257.88.44H240.55v90h9V8.58Z"/><path d="M471.31,128.53a27.87,27.87,0,0,0-16-25.65c-4.13-1.95-10.09-3.4-22.13-3.4H415.8v90h9V107.62H435c7.54,0,12.16.61,17.51,3.4,5.84,2.92,9.85,10.21,9.85,17.27a19.75,19.75,0,0,1-14.83,19.09c-4,1.22-7.9,1.34-19.33,1.34l30.52,40.73H470l-25.41-33.56C462,154.79,471.31,141.54,471.31,128.53Z"/><path d="M165.43,128.21a27.87,27.87,0,0,0-16-25.65c-4.13-1.94-10.09-3.4-22.13-3.4H104.4v90h9V107.3h15.68c7.54,0,12.16.61,17.51,3.4,5.84,2.92,9.85,10.21,9.85,17.27a19.74,19.74,0,0,1-14.83,19.09c-4,1.22-7.9,1.34-19.33,1.34l30.52,40.73H164.1l-25.41-33.56C156.07,154.47,165.43,141.22,165.43,128.21Z"/><polygon points="350.33 82.26 310.09 82.26 310.09 49.07 349 49.07 349 40.92 310.09 40.92 310.09 8.58 350.33 8.58 350.33 0.44 301.1 0.44 301.1 90.41 350.33 90.41 350.33 82.26"/><polygon points="50.53 107.3 71.2 107.3 71.2 189.12 80.2 189.12 80.2 107.3 100.75 107.3 100.75 99.15 50.53 99.15 50.53 107.3"/><path d="M280.13,138.62c-11.79-3.4-21.4-6-21.4-16.9,0-7.78,6-15.68,16.29-15.68A16.22,16.22,0,0,1,291,122.33h9c0-13.13-10.21-24.44-24.92-24.44-14.23,0-25.29,10.21-25.29,24.2,0,17.87,15.2,21.28,23.35,23.71,6.08,1.82,20.06,5.35,20.06,19.21A17.87,17.87,0,0,1,275,182.88c-11.06,0-18.24-7.3-18.72-18.6h-9c.36,19.82,16,26.75,27.72,26.75a26.6,26.6,0,0,0,27.11-26.38C302.14,162,302.26,144.58,280.13,138.62Z"/><path d="M32.83,138.62c-11.79-3.4-21.4-6-21.4-16.9,0-7.78,6-15.68,16.29-15.68a16.22,16.22,0,0,1,15.93,16.29h9c0-13.13-10.21-24.44-24.93-24.44-14.22,0-25.29,10.21-25.29,24.2,0,17.87,15.2,21.28,23.35,23.71,6.08,1.82,20.06,5.35,20.06,19.21a17.87,17.87,0,0,1-18.12,17.87c-11.06,0-18.24-7.3-18.72-18.6H0C.36,184.09,16,191,27.72,191a26.6,26.6,0,0,0,27.11-26.38C54.83,162,55,144.58,32.83,138.62Z"/><path d="M337.49,138.62c-11.8-3.4-21.4-6-21.4-16.9,0-7.78,6-15.68,16.29-15.68a16.22,16.22,0,0,1,15.93,16.29h9c0-13.13-10.21-24.44-24.92-24.44-14.23,0-25.29,10.21-25.29,24.2,0,17.87,15.2,21.28,23.34,23.71,6.08,1.82,20.06,5.35,20.06,19.21a17.87,17.87,0,0,1-18.11,17.87c-11.07,0-18.24-7.3-18.73-18.6h-9c.36,19.82,16,26.75,27.72,26.75a26.6,26.6,0,0,0,27.11-26.38C359.5,162,359.62,144.58,337.49,138.62Z"/><polygon points="361.76 189.44 411 189.44 411 181.3 370.76 181.3 370.76 148.11 409.66 148.11 409.66 139.96 370.76 139.96 370.76 107.62 411 107.62 411 99.47 361.76 99.47 361.76 189.44"/><path d="M35.33,59.87h33V90.36h8.46V.49H65.63L3.43,90.36h11.1Zm33-47.4V51.41H40.08Z"/><polygon points="419.24 13.02 419.15 90.31 429.48 90.31 491.68 0.49 480.74 0.49 427.53 76.99 427.53 0.49 416.86 0.49 363.03 76.99 363.03 0.49 354.65 0.49 354.65 90.31 364.71 90.31 419.24 13.02"/><path d="M215.38,82.87c17.21-11,20.5-29,20.5-37.47,0-10.86-4.64-28.07-20.5-38C208.06,2.68,197.07,0,186,0H159.61V90.31H186C197.07,90.31,208.06,87.62,215.38,82.87Zm-46.74-.73v-74H181.7c13.3,0,21.72,1.71,29.78,7A37.22,37.22,0,0,1,226.85,45c0,15.74-8.67,25.14-14.16,29.78-10.37,7.32-22.82,7.32-31,7.32H168.64Z"/><path d="M204.87,99.15l-38.4,89.92h9.36L189,158.81h41.8l13,30.26h9.84L215,99.15Zm-12.52,51.52L210,109.36l17.25,41.32Z"/></g></g></svg>